<?xml version="1.0" encoding="utf-8"?>
<?xml-stylesheet type="text/xsl" href="rss1.xsl"?>
<rss version="2.0" xmlns:atom="http://www.w3.org/2005/Atom" xmlns:content="http://purl.org/rss/1.0/modules/content/" xmlns:dc="http://purl.org/dc/elements/1.1/" xmlns:media="http://search.yahoo.com/mrss/">
<channel>
 <title>Getty</title>
 <link>http://www.gettyimg.com/</link>
 <atom:link href="http://www.gettyimg.com/" rel="self" type="application/rss+xml" />

 
                <item>
                <title><![CDATA[【UPSCALED】Tate McRae - exes [4K 2160p AM | HEVC 10-bit | PCM 24-bit 44.1 kHz | DD+ Dolby Atmos]]]></title>
                <link><![CDATA[https://sharemania.us/threads/tate-mcrae-exes-4k-2160p-am-hevc-10-bit-pcm-24-bit-44-1-khz-dd-dolby-atmos.233254/]]></link>
                <description><![CDATA[<article>
<blockquote class="messageText SelectQuoteContainer ugc baseHtml">
<b><img src="https://images2.imgbox.com/f7/33/X0BgjyHC_o.jpg" class="bbCodeImage LbImage" alt="[​IMG]" data-url="https://images2.imgbox.com/f7/33/X0BgjyHC_o.jpg" style=""> <br>
<br>
Genre: <span style="color: #0059b3">Electronic, Pop</span> <br>
Style: <span style="color: #0059b3">Dance-pop</span> <br>
Year: <span style="color: #0059b3">2023</span> <br>
Video Source: <span style="color: #0059b3">Apple Music, thanks SonMaxime</span><br>
Audio Source: <span style="color: #0059b3">Qobuz &amp; <b>Apple Music, thanks moi &amp; SonMaxime</b></span></b><br>
<br>
"<b>Exes</b>" is a song by Canadian singer-songwriter Tate McRae. It was released on November 17, 2023, through RCA Records as the second single from her upcoming second studio album, <i>Think Later</i>.<br>
<br>
Following the release and commercial success of her single "Greedy", McRae announced <i>Think Later</i> on November 6, 2023, her upcoming second studio album. The creative process behind the album was described by McRae as [one of] "the most stressful, exciting, nerve racking, and fun things" she has ever experienced. On November 14, 2023, McRae confirmed the release of "Exes" on her Instagram and TikTok. The announcement post on Instagram was captioned with the lyric "kisses to my xx", while she had previously teased the song in a TikTok video a few days prior. In promotion of her upcoming album, McRae performed on the November 18, 2023, episode of <i>Saturday Night Live</i>.<br>
<br>
<b>Release Info</b><br>
The video track is downloaded from Apple Music by SonMaxime (2160p HEVC 10-bit), left as is.<br>
The PCM track is lossless (Qobuz, Hi-Res, 24-bit 44.1 kHz), synced with Adobe Audition.<br>
The Dolby Atmos track is lossy (E-AC3), synced to the video track by muxing.<br>
The timed lyrics are synced &amp; edited. Enable the subtitles to see the lyrics.<br>
<br>
<div class="ToggleTriggerAnchor bbCodeSpoilerContainer">
<button type="button" class="button bbCodeSpoilerButton ToggleTrigger Tooltip JsOnly" data-target="> .SpoilerTarget"><span>Spoiler: <span class="SpoilerTitle">Media Info</span></span></button>
<div class="SpoilerTarget bbCodeSpoilerText">
<div class="bbCodeBlock bbCodeCode">
<div class="type">Code:</div>
<pre>General
Unique ID                      : 211327015185052211862696197326762334271 (0x9EFC1A47F1CE783EA4626FC3EFD6D83F)
Complete name                  : Tate McRae - exes.mkv
Format                         : Matroska
Format version                 : Version 4 / Version 2
File size                      : 452 MiB
Duration                       : 2 min 42 s
Overall bit rate               : 23.3 Mb/s
Frame rate                     : 24.000 FPS
Encoded date                   : 2023-11-30 14:46:08 UTC
Writing application            : mkvmerge v80.0 ('Roundabout') 64-bit
Writing library                : libebml v1.4.4 + libmatroska v1.7.1

Video
ID                             : 1
Format                         : HEVC
Format/Info                    : High Efficiency Video Coding
Format profile                 : Main 10@L5@High
Codec ID                       : V_MPEGH/ISO/HEVC
Duration                       : 2 min 42 s
Bit rate                       : 20.4 Mb/s
Width                          : 3 564 pixels
Height                         : 2 160 pixels
Display aspect ratio           : 5:3
Frame rate mode                : Constant
Frame rate                     : 24.000 FPS
Color space                    : YUV
Chroma subsampling             : 4:2:0
Bit depth                      : 10 bits
Bits/(Pixel*Frame)             : 0.111
Stream size                    : 397 MiB (88%)
Default                        : Yes
Forced                         : No
Color range                    : Limited
Color primaries                : BT.709
Transfer characteristics       : BT.709
Matrix coefficients            : BT.709

Audio #1
ID                             : 2
Format                         : PCM
Format settings                : Little / Signed
Codec ID                       : A_PCM/INT/LIT
Duration                       : 2 min 41 s
Bit rate mode                  : Constant
Bit rate                       : 2 117 kb/s
Channel(s)                     : 2 channels
Sampling rate                  : 44.1 kHz
Frame rate                     : 25.001 FPS (1764 SPF)
Bit depth                      : 24 bits
Stream size                    : 40.8 MiB (9%)
Title                          : Lossless 24-bit
Language                       : English
Default                        : Yes
Forced                         : No

Audio #2
ID                             : 3
Format                         : E-AC-3 JOC
Format/Info                    : Enhanced AC-3 with Joint Object Coding
Commercial name                : Dolby Digital Plus with Dolby Atmos
Codec ID                       : A_EAC3
Duration                       : 2 min 39 s
Bit rate mode                  : Constant
Bit rate                       : 768 kb/s
Channel(s)                     : 6 channels
Channel layout                 : L R C LFE Ls Rs
Sampling rate                  : 48.0 kHz
Frame rate                     : 31.250 FPS (1536 SPF)
Compression mode               : Lossy
Delay relative to video        : 2 s 360 ms
Stream size                    : 14.6 MiB (3%)
Title                          : Dolby Atmos
Language                       : English
Service kind                   : Complete Main
Default                        : Yes
Forced                         : No
Complexity index               : 16
Number of dynamic objects      : 15
Bed channel count              : 1 channel
Bed channel configuration      : LFE

Text
ID                             : 4
Format                         : UTF-8
Codec ID                       : S_TEXT/UTF8
Codec ID/Info                  : UTF-8 Plain Text
Duration                       : 2 min 37 s
Bit rate                       : 116 b/s
Frame rate                     : 0.292 FPS
Count of elements              : 46
Stream size                    : 2.25 KiB (0%)
Title                          : Lyrics
Language                       : English
Default                        : No
Forced                         : No
</pre>
</div></div>
</div><br>
<div class="bbCodeBlock bbCodeVfcHH HiddenContent">
<div class="attribution type">Hidden Content:</div>
<blockquote>You must reply before you can see the hidden data contained here.</blockquote>
</div>
<div class="messageTextEndMarker">&nbsp;</div>
</blockquote>
</article>]]></description>
                <author><![CDATA[ADHDerby]]></author>
                </item>

                
                <item>
                <title><![CDATA[【Requests】[REQ AUD] - Ripped remixes from Björk´s Fossora boxset?]]></title>
                <link><![CDATA[https://sharemania.us/threads/ripped-remixes-from-bj%C3%B6rk%C2%B4s-fossora-boxset.233255/]]></link>
                <description><![CDATA[<article>
<blockquote class="messageText SelectQuoteContainer ugc baseHtml">
Björk has released a new Fossora Boxset with 5 new exclusive reimagined tracks: <a href="https://shop.bjork.com/product/fossora-boxset/" target="_blank" class="externalLink" rel="nofollow">https://shop.bjork.com/product/fossora-boxset/</a><br>
The first people already received their copies. Please, can someone rip the 5 tracks in lossless? Thanks in advance!
<div class="messageTextEndMarker">&nbsp;</div>
</blockquote>
</article>]]></description>
                <author><![CDATA[MartinSlovak]]></author>
                </item>

                </channel></rss>